<svg width="24" height="24" viewBox="0 0 45 40" fill="none" xmlns="http://www.w3.org/2000/svg">
<path d="M21.0001 0.166687C9.50008 0.166687 0.166748 9.50002 0.166748 21C0.166748 32.5 9.50008 41.8334 21.0001 41.8334C32.5001 41.8334 41.8334 32.5 41.8334 21C41.8334 9.50002 32.5001 0.166687 21.0001 0.166687ZM21.0001 6.41669C24.4584 6.41669 27.2501 9.20835 27.2501 12.6667C27.2501 16.125 24.4584 18.9167 21.0001 18.9167C17.5417 18.9167 14.7501 16.125 14.7501 12.6667C14.7501 9.20835 17.5417 6.41669 21.0001 6.41669ZM21.0001 36C15.7917 36 11.1876 33.3334 8.50008 29.2917C8.56258 25.1459 16.8334 22.875 21.0001 22.875C25.1459 22.875 33.4376 25.1459 33.5001 29.2917C30.8126 33.3334 26.2084 36 21.0001 36Z" fill="black"/>
</svg>
